<?xml version="1.0" encoding="UTF-8"?><svg id="Camada_2" xmlns="http://www.w3.org/2000/svg" viewBox="0 0 174.56 20.59"><g id="Camada_1-2"><g><path d="M0,20.2V.4H5.04L15.45,12.65V.4h4.98V20.2h-4.72L4.98,7.81v12.39H0Z"/><path d="M22.54,20.2L31.34,.4h5.8l8.8,19.8h-5.49l-1.41-3.48h-9.7l-1.41,3.48h-5.37Zm8.66-8.12h5.97l-3-7.41-2.97,7.41Z"/><path d="M47.44,19.41l-.59-4.81c1.33,.79,3.45,1.53,5.57,1.53,2.83,0,3.65-1.24,3.65-3.42V.4h4.98V13.58c0,4.72-2.72,7.02-7.78,7.02-2.49,0-4.67-.51-5.83-1.19Z"/><path d="M64.3,12.62V.4h4.98V11.99c0,2.72,1.67,4.07,4.5,4.07s4.5-1.36,4.5-4.07V.4h4.98V12.62c0,5.23-3.9,7.98-9.48,7.98s-9.48-2.74-9.48-7.98Z"/><path d="M87.32,20.2V.4h11.03c3.93,0,5.88,2.21,5.88,4.98,0,2.26-1.24,3.82-3.37,4.38,2.49,.31,4.33,2.23,4.33,4.89,0,3.48-2.46,5.54-6.53,5.54h-11.34Zm2.43-11.4h8.15c2.6,0,3.9-1.41,3.9-3.22s-1.19-3.06-3.82-3.06h-8.23v6.28Zm0,9.28h8.66c2.91,0,4.36-1.33,4.36-3.54s-1.64-3.65-4.67-3.65h-8.35v7.19Z"/><path d="M108.11,10.3c0-5.4,3.71-10.3,10.38-10.3s10.41,4.89,10.41,10.3-3.71,10.3-10.41,10.3-10.38-4.89-10.38-10.3Zm18.36,0c0-4.3-2.86-8.12-7.98-8.12s-7.92,3.82-7.92,8.12,2.83,8.12,7.92,8.12,7.98-3.82,7.98-8.12Z"/><path d="M131.96,10.3c0-5.4,3.71-10.3,10.38-10.3s10.41,4.89,10.41,10.3-3.71,10.3-10.41,10.3-10.38-4.89-10.38-10.3Zm18.36,0c0-4.3-2.86-8.12-7.98-8.12s-7.92,3.82-7.92,8.12,2.83,8.12,7.92,8.12,7.98-3.82,7.98-8.12Z"/><path d="M156.71,20.2V.4h2.49V9.51L170.8,.4h3.45l-12.14,9.39,12.45,10.41h-3.45l-11.91-10.1v10.1h-2.49Z"/></g></g></svg>